<svg id="asdasdasd" xmlns="http://www.w3.org/2000/svg" xmlns:xlink="http://www.w3.org/1999/xlink" viewBox="0 0 110 110" shape-rendering="geometricPrecision" text-rendering="geometricPrecision">
  <style>
    #asdasdasd-u-rix_to {animation: asdasdasd-u-rix_to__to 2500ms linear 1 normal forwards}
      @keyframes asdasdasd-u-rix_to__to { 0% {transform: translate(129.547503px,6.75052px)} 32% {transform: translate(81.76px,6.75052px)} 100% {transform: translate(81.76px,6.75052px)}} 
    
    #asdasdasd-u-ri {animation: asdasdasd-u-ri_c_o 2500ms linear 1 normal forwards}
      @keyframes asdasdasd-u-ri_c_o { 0% {opacity: 1} 32% {opacity: 1} 44% {opacity: 0} 100% {opacity: 0}} 
    
    #asdasdasd-u-x_to {animation: asdasdasd-u-x_to__to 2500ms linear 1 normal forwards}
      @keyframes asdasdasd-u-x_to__to { 0% {transform: translate(92.308006px,6.75052px)} 44% {transform: translate(92.308006px,6.75052px)} 68% {transform: translate(65.178739px,6.748294px)} 100% {transform: translate(65.178739px,6.748294px)}} 
    
    #asdasdasd-u-x_ts {animation: asdasdasd-u-x_ts__ts 2500ms linear 1 normal forwards}
      @keyframes asdasdasd-u-x_ts__ts { 0% {transform: scale(1,1)} 44% {transform: scale(1,1)} 68% {transform: scale(1.7,1.7)} 100% {transform: scale(1.7,1.7)}} 
    
    #asdasdasd-u-x {animation: asdasdasd-u-x_c_o 2500ms linear 1 normal forwards}
      @keyframes asdasdasd-u-x_c_o { 0% {opacity: 1} 68.4% {opacity: 1} 68.8% {opacity: 0} 100% {opacity: 0}} 
    
    #asdasdasd-u-dag_to {animation: asdasdasd-u-dag_to__to 2500ms linear 1 normal forwards}
      @keyframes asdasdasd-u-dag_to__to { 0% {transform: translate(-37.339px,6.748424px)} 32% {transform: translate(34.44px,6.776424px)} 100% {transform: translate(34.44px,6.776424px)}} 
    
    #asdasdasd-u-ag {animation: asdasdasd-u-ag_c_o 2500ms linear 1 normal forwards}
      @keyframes asdasdasd-u-ag_c_o { 0% {opacity: 1} 32% {opacity: 1} 44% {opacity: 0} 100% {opacity: 0}} 
    
    #asdasdasd-u-d_to {animation: asdasdasd-u-d_to__to 2500ms linear 1 normal forwards}
      @keyframes asdasdasd-u-d_to__to { 0% {transform: translate(11.95822px,6.771999px)} 44% {transform: translate(11.95822px,6.771999px)} 68% {transform: translate(36.5902px,6.776903px)} 100% {transform: translate(36.5902px,6.776903px)}} 
    
    #asdasdasd-u-d_ts {animation: asdasdasd-u-d_ts__ts 2500ms linear 1 normal forwards}
      @keyframes asdasdasd-u-d_ts__ts { 0% {transform: scale(1,1)} 44% {transform: scale(1,1)} 68% {transform: scale(1.7,1.7)} 100% {transform: scale(1.7,1.7)}} 
    
    #asdasdasd-u-d {animation: asdasdasd-u-d_c_o 2500ms linear 1 normal forwards}
      @keyframes asdasdasd-u-d_c_o { 0% {opacity: 1} 68.4% {opacity: 1} 68.8% {opacity: 0} 100% {opacity: 0}} 
    
    #asdasdasd-u-dx_ts {animation: asdasdasd-u-dx_ts__ts 2500ms linear 1 normal forwards}
      @keyframes asdasdasd-u-dx_ts__ts { 0% {transform: translate(53.832432px,54.927279px) scale(1,1)} 68% {transform: translate(53.832432px,54.927279px) scale(1,1)} 80% {transform: translate(53.832432px,54.927279px) scale(0.65,1.1)} 100% {transform: translate(53.832432px,54.927279px) scale(0.65,1.1)}} 
    
    #asdasdasd-u-dx {animation: asdasdasd-u-dx_c_o 2500ms linear 1 normal forwards}
      @keyframes asdasdasd-u-dx_c_o { 0% {opacity: 0} 68% {opacity: 0} 68.4% {opacity: 1} 100% {opacity: 1}} 
    
    #asdasdasd-s-ellipse1_ts {animation: asdasdasd-s-ellipse1_ts__ts 2500ms linear 1 normal forwards}
      @keyframes asdasdasd-s-ellipse1_ts__ts { 0% {transform: translate(55px,54.930391px) scale(1.6,1.6)} 44% {transform: translate(55px,54.930391px) scale(1.6,1.6)} 68% {transform: translate(55px,54.930391px) scale(0.95,0.95)} 100% {transform: translate(55px,54.930391px) scale(0.95,0.95)}} 
    
    #asdasdasd-s-ellipse1 {animation: asdasdasd-s-ellipse1_c_o 2500ms linear 1 normal forwards}
      @keyframes asdasdasd-s-ellipse1_c_o { 0% {opacity: 0} 44% {opacity: 0} 68% {opacity: 1} 100% {opacity: 1}}
  </style>
  <g id="asdasdasd-u-logo" transform="translate(2.897498 48.251576)" clip-rule="evenodd">
    <g id="asdasdasd-u-rix_to" transform="translate(129.547503,6.75052)">
      <g id="asdasdasd-u-rix" transform="translate(-81.76,-6.75052)">
        <g id="asdasdasd-u-ri" transform="translate(.000001 0)">
          <path id="asdasdasd-u-i" d="M76.834,0.114v13.373h2.215v-13.373c0-.066-.02-.086-.086-.086h-2.044c-.065,0-.085.02-.085.086Z" clip-rule="evenodd" fill="#fff" fill-rule="evenodd"/>
          <path id="asdasdasd-u-r" d="M61.189,2.158c2.858,0,5.716,0,8.575,0c1.081,0,2.124-.159,2.875.589.459.456.644,1.089.434,1.726-.278.844-1.09,1.263-1.975,1.263h-6.502c.037.137.703.818.845.972l6.083,6.779h2.612c-.042-.182-.734-.889-.88-1.079-.087-.114-.202-.237-.305-.348L71.148,9.945c-.252-.271-.673-.808-.909-1.05l-.752-.866c-.078-.078-.092-.107-.149-.192c1.754,0,2.689.215,4.072-.699l.649-.543c.062-.065.071-.091.128-.156.641-.735.943-1.544.943-2.634c0-.416-.019-.773-.131-1.09-.137-.39-.425-.821-.676-1.141-.73-.933-1.567-1.369-2.762-1.526-.321-.042-1.99-.02-2.45-.02-3.266,0-6.531,0-9.796,0c.035.132.872.995,1.03,1.185.042.05.08.082.127.128.1.098.141.173.241.271l.476.546Z" clip-rule="evenodd" fill="#fff" fill-rule="evenodd"/>
        </g>
        <g id="asdasdasd-u-x_to" transform="translate(92.308006,6.75052)">
          <g id="asdasdasd-u-x_ts" transform="scale(1,1)">
            <path id="asdasdasd-u-x" d="M80.411,0.057c.05.074.483.36.591.431L82.87,1.743c.839.56,1.65,1.11,2.482,1.664l3.731,2.488c.175.116,1.183.812,1.266.834-.066.1-1.043.743-1.215.858l-8.393,5.662c-.086.057-.267.143-.301.238l3.77-.006c.116-.024,5.983-3.969,6.809-4.52l1.318-.869l3.214,2.152c.222.148.431.288.647.432.434.289.847.574,1.289.869.265.176,2.839,1.914,2.921,1.935l3.769.007c-.024-.089-.051-.085-.124-.132-.659-.422-1.728-1.121-2.33-1.56L96.176,8.03c-.216-.144-.42-.28-.631-.421-.163-.108-1.193-.775-1.249-.851.078-.117,5.226-3.522,5.548-3.737l4.026-2.703c.091-.06.237-.178.335-.204v-.086h-3.776c-.129.011-.25.12-.352.188-.226.151-.424.282-.647.431L94.887,3.714c-.106.07-2.482,1.704-2.607,1.738L84.648,0.335c-.095-.063-.164-.108-.26-.166-.081-.048-.171-.141-.285-.141-.361,0-3.631-.046-3.692.029Z" transform="translate(-92.308006,-6.75052)" clip-rule="evenodd" fill="#fff" fill-rule="evenodd" stroke-width="2"/>
          </g>
        </g>
      </g>
    </g>
    <g id="asdasdasd-u-dag_to" transform="translate(-37.339,6.748424)">
      <g id="asdasdasd-u-dag" transform="translate(-34.441501,-6.748424)">
        <g id="asdasdasd-u-ag">
          <path id="asdasdasd-u-a" d="M22.261,13.487h18.655c-.046-.17-1.197-1.308-1.396-1.557l-.471-.523c-.138-.1-1.656-.049-1.938-.049-3.313,0-6.625,0-9.938,0c.17-.254.467-.521.675-.745.053-.058.052-.07.1-.127.185-.222.402-.41.584-.638.075-.094.157-.152.238-.244l1.377-1.519c.043-.042.074-.069.113-.115.052-.062.053-.078.114-.141l3.212-3.517c.075-.095.157-.153.238-.245.164-.186.591-.615.675-.773.197.132.481.526.674.717.407.405.765.864,1.163,1.278.066.068.124.114.185.184.274.31.544.631.838.922.278.274.562.646.837.924l4.541,4.943c.065.082.081.105.159.182.132.13.21.24.341.369.164.162.362.36.501.549.075.101.08.124.242.128.928.017,1.882-.003,2.813-.003-.027-.103-1.148-1.297-1.314-1.469l-.385-.438c-.173-.217-.402-.397-.572-.62l-.958-1.058c-.333-.33-.621-.707-.952-1.036l-.395-.429c-.293-.368-.639-.685-.941-1.046L39.928,5.928c-.08-.081-.103-.133-.183-.214L36.862,2.577c-.303-.306-.636-.725-.965-1.051l-.383-.412c-.08-.09-.108-.137-.199-.227-.138-.136-.661-.745-.788-.83-.194.13-.574.616-.774.816l-.382.413c-.077.093-.098.125-.186.212l-3.067,3.35c-.31.307-.851.969-1.149,1.264-.403.4-.765.848-1.15,1.264-.191.207-.398.393-.573.619-.066.086-.121.127-.194.203l-.582.639c-.085.084-.109.133-.184.214L23.6,11.986c-.063.079-.125.129-.197.201l-1.051,1.164c-.067.075-.064.033-.091.136Z" clip-rule="evenodd" fill="#fff" fill-rule="evenodd"/>
          <path id="asdasdasd-u-g" d="M68.883,13.487c-.043-.185-.491-.557-.641-.75l-1.324-1.458c-.461-.465-.882-.975-1.336-1.447-.071-.074-.084-.112-.155-.186L63.269,7.29c-.06-.06-.116-.107-.169-.171-.073-.087-.089-.117-.172-.198l-.993-1.08c-.087-.091-.069-.105-.233-.108l-1.763.003c-1.855,0-3.71,0-5.565,0c.01.119.005.064.072.155l1.257,1.838c.108.143.144.11.375.108.358-.003,4.608-.036,4.763.007.112.03.967,1.054,1.164,1.25.043.043.073.068.114.112.267.289.516.606.795.881.096.094.133.163.226.256.281.278.534.585.796.879.054.06.076.069.12.136h-11.897c-.486,0-.756-.012-1.228-.106-.598-.121-1.12-.371-1.617-.684-.081-.051-.119-.088-.198-.142-.385-.261-.712-.603-.988-.971-.472-.628-.909-1.505-.909-2.442c0-1.018.108-1.556.539-2.385.117-.226.339-.559.505-.745.104-.116.187-.216.298-.327.21-.21.433-.396.685-.564.721-.479,1.416-.695,2.3-.823.314-.044,5.993-.019,6.834-.01.357.004.197-.103.062-.235-.316-.308-.582-.669-.895-.98-.196-.194-.783-.944-.93-.944h-4.685c-.88,0-1.674.183-2.339.415-.639.223-1.326.593-1.818.964-.39.294-.785.599-1.091.982l-.326.384c-.774.954-1.242,2.202-1.378,3.449-.051.463-.013.877.024,1.303.093,1.088.522,2.16,1.148,3.025.332.459.454.535.629.762.284.368,1.137.997,1.554,1.229.157.088.288.157.446.236.16.08.282.141.466.215c1.001.4,1.858.523,2.969.523c5.556,0,11.112,0,16.667,0Z" clip-rule="evenodd" fill="#fff" fill-rule="evenodd"/>
        </g>
        <g id="asdasdasd-u-d_to" transform="translate(11.95822,6.771999)">
          <g id="asdasdasd-u-d_ts" transform="scale(1,1)">
            <path id="asdasdasd-u-d" d="M0,0.142v2.044h16.497c1.057,0,2.058.192,2.884.693.306.186.443.305.71.512.365.283.843.9,1.063,1.322.538,1.035.702,2.442.264,3.558-.39.994-.921,1.687-1.809,2.28-.479.32-1.144.59-1.728.715-.738.158-3.923.092-4.82.092-3.814,0-7.628,0-11.443,0-.422,0-1.283-.05-1.618.028v2.101h17.15c.514,0,1.021-.099,1.442-.204.204-.051.442-.107.639-.185.688-.273.54-.208,1.137-.51.177-.09.349-.201.513-.31c1.357-.903,2.34-2.212,2.803-3.785.447-1.519.237-3.346-.524-4.708-.059-.106-.081-.173-.149-.276-.209-.314-.274-.439-.535-.772-.156-.199-.655-.728-.864-.896-.162-.129-.3-.255-.475-.376-.453-.311-.582-.401-1.081-.651-1.086-.543-2.196-.757-3.616-.757h-16.355c-.065,0-.085.02-.085.085Z" transform="translate(-11.95822,-6.771999)" clip-rule="evenodd" fill="#fff" fill-rule="evenodd" stroke-width="2"/>
          </g>
        </g>
      </g>
    </g>
  </g>
  <g id="asdasdasd-u-dx_ts" transform="translate(53.832432,54.927279) scale(1,1)">
    <g id="asdasdasd-u-dx" transform="translate(-50.832432,-6.748294)" opacity="0">
      <path id="asdasdasd-u-x2" d="M89.438902,7.636979L80.741,13.249c-.086.057-.397895.143514-.431895.238514h3.949497c.116-.024,5.94078-4.230123,6.76678-4.781123" transform="matrix(1.7 0 0 1.7-91.797626-4.880272)" clip-rule="evenodd" fill="#fff" fill-rule="evenodd"/>
      <path id="asdasdasd-u-x2" d="M92.337,8.092l3.214,2.152c.222.148.431.288.647.432.434.289.847.574,1.289.869.265.176,2.839,1.914,2.921,1.935l3.769.007c-.024-.089-.051-.085-.124-.132-.659-.422-1.728-1.121-2.33-1.56L96.176,8.03c-.216-.144-.42-.28-.631-.421-.163-.108-1.193-.775-1.249-.851.078-.117,5.226-3.522,5.548-3.737l4.026-2.703c.091-.06.237-.178.335-.204v-.086h-3.776c-.129.011-.25.12-.352.188-.226.151-.424.282-.647.431L94.887,3.714c-.106.07-2.482,1.704-2.607,1.738L84.648,0.335c-.095-.063-.164-.108-.26-.166-.081-.048-.377163-.098299-.491163-.098299-.405045-.042701-3.290712-.055605-3.351712.019395-.000001-.033055.348875.326904.456875.397904L82.87,1.743c.839.56,1.65,1.11,2.482,1.664l3.731,2.488c.175.116,1.183.812,1.266.834" transform="matrix(1.7 0 0 1.7-91.797626-4.72759)" clip-rule="evenodd" fill="#fff" fill-rule="evenodd"/>
      <path id="asdasdasd-u-d2" d="M23.16,9.275345c-.39.994-1.448032.893471-2.336032,1.486471-.767968.624184-.767969.596184-2.945043.596184-1.002956.023173-3.920925,0-4.817925,0-3.814,0-7.628,0-11.443,0-.422,0-1.283-.05-1.618.028v2.101l17.063442-.03977c.514,0,1.107558-.05923,1.528558-.16423.204-.051.442-.107.639-.185.688-.273.54-.208,1.137-.51.177-.09.349-.201.513-.31c1.357-.903,3.28164-1.275538,3.74464-2.848538" transform="matrix(1.7 0 0 1.7 16.3-4.811789)" clip-rule="evenodd" fill="#fff" fill-rule="evenodd"/>
      <path id="asdasdasd-u-d3" d="M23.16,3.48358c-.209-.314-.423-.41358-.684-.74658-.156-.199-.655-.728-.864-.896-.162-.129-.3-.255-.475-.376-.453-.311-.582-.401-1.081-.651-1.086-.543-2.052495-.762016-3.472495-.762016.842408,0-8.356984.005016-16.498505.005016-.065,0-.085.02-.085.085v2.044h16.497c2.808969,0,3.045784-.041765,5.290969,1.155815" transform="matrix(1.7 0 0 1.7 16.261226-4.735495)" clip-rule="evenodd" fill="#fff" fill-rule="evenodd"/>
      <path id="asdasdasd-u-d4" d="M14.511772,0.057c.743603,0-7.25013,0-14.436742,0C0.017655,0.057,0,0.085083,0,0.176355v2.870134h14.562087" transform="matrix(.00568 1.304746-1.904056 0.008288 22.044761-2.687102)" clip-rule="evenodd" fill="#fff" fill-rule="evenodd"/>
    </g>
  </g>
  <g id="asdasdasd-s-ellipse1_ts" transform="translate(55,54.930391) scale(1.6,1.6)">
    <ellipse id="asdasdasd-s-ellipse1" rx="51.618985" ry="51.618985" transform="translate(0,0)" opacity="0" fill="none" stroke="#fff" stroke-width="5"/>
  </g>
</svg>
