<?xml version="1.0" encoding="utf-8"?>
<!-- Generator: Adobe Illustrator 26.2.1, SVG Export Plug-In . SVG Version: 6.00 Build 0)  -->
<svg version="1.1" id="Layer_1" xmlns="http://www.w3.org/2000/svg" xmlns:xlink="http://www.w3.org/1999/xlink" x="0px" y="0px"
	 viewBox="0 0 1080 1080" style="enable-background:new 0 0 1080 1080;" xml:space="preserve">
<style type="text/css">
	.st0{fill:#932B82;}
</style>
<path class="st0" d="M629.73,536.19l46.67-46.7l66.88-66.88H648.7l-66.26,66.28l-38.43-38.43c-17.84-17.84-42.04-27.85-67.25-27.85
	H315.5v248.34h148.23c19.98,0,39.15-7.94,53.28-22.08l44.82-44.82l7.47-7.45l-47.29-47.29l-44.23,44.21
	c-6.73,6.76-15.89,10.53-25.43,10.53h-69.99V489.49h88.88c11,0,21.56,4.37,29.36,12.16l169.3,169.3h94.58L629.73,536.19z"/>
<g>
	<path class="st0" d="M540,898.36c-95.72,0-185.71-37.28-253.4-104.96C218.91,725.72,181.64,635.72,181.64,540
		s37.28-185.72,104.96-253.4c67.69-67.69,157.68-104.96,253.4-104.96c95.72,0,185.72,37.28,253.4,104.96
		c67.69,67.69,104.96,157.68,104.96,253.4S861.09,725.72,793.4,793.4C725.72,861.09,635.72,898.36,540,898.36z M540,221.08
		c-175.85,0-318.92,143.07-318.92,318.92S364.15,858.92,540,858.92S858.92,715.85,858.92,540S715.85,221.08,540,221.08z"/>
</g>
</svg>
