<svg xmlns="http://www.w3.org/2000/svg" width="3786" height="3786" viewBox="0 0 3786 3786" version="1.1"><path d="M 1819 1.080 C 1410.989 17.239, 1028.498 159.604, 712 413.110 C 623.957 483.630, 541.624 562.402, 467.469 647.064 C 257.226 887.095, 112.864 1171.795, 44.608 1481 C 12.942 1624.450, -1.440 1765.441, 0.339 1915 C 1.085 1977.744, 3.149 2017.865, 8.541 2074.500 C 40.468 2409.797, 158.357 2724.122, 354.341 2996.500 C 447.563 3126.060, 560.648 3247.157, 685.179 3350.776 C 885.941 3517.826, 1118.742 3641.167, 1368 3712.544 C 1758.568 3824.386, 2180.349 3807.970, 2558.500 3666.208 C 2850.027 3556.919, 3111.398 3375.319, 3319.707 3137.321 C 3459.929 2977.114, 3571.763 2795.103, 3650.777 2598.500 C 3717.712 2431.951, 3760.128 2256.503, 3777.459 2074.500 C 3781.467 2032.401, 3784.981 1975.654, 3784.994 1952.809 C 3784.997 1946.101, 3785.426 1940.855, 3786 1940.500 C 3786.644 1940.102, 3787 1922.803, 3787 1891.882 C 3787 1865.482, 3786.621 1844.116, 3786.159 1844.402 C 3785.696 1844.688, 3785.020 1834.477, 3784.657 1821.711 C 3783.630 1785.603, 3780.253 1736.476, 3775.947 1695 C 3743.859 1385.930, 3638.263 1094.348, 3465.586 838 C 3376.801 706.193, 3270.248 584.329, 3150.452 477.582 C 2897.694 252.357, 2592.803 100.621, 2262.437 35.640 C 2163.332 16.147, 2068.195 5.124, 1963.500 1.004 C 1934.985 -0.118, 1848.097 -0.072, 1819 1.080 M 1832 210.109 C 1557.780 220.333, 1294.094 295.693, 1057.615 431.423 C 956.997 489.174, 862.436 557.239, 775.500 634.488 C 693.185 707.631, 617.044 789.976, 550.334 878 C 404.052 1071.021, 301.147 1293.108, 249.073 1528.177 C 212.469 1693.414, 201.010 1863.220, 215.040 2032.500 C 246.007 2406.133, 399.857 2755.597, 655.937 3033.980 C 674.227 3053.863, 722.749 3102.611, 744 3122.452 C 1004.619 3365.784, 1331.259 3519.274, 1682.500 3563.456 C 1821.215 3580.905, 1964.785 3580.905, 2103.500 3563.456 C 2454.747 3519.273, 2781.377 3365.788, 3042 3122.452 C 3063.251 3102.611, 3111.773 3053.863, 3130.063 3033.980 C 3295.398 2854.245, 3418.473 2644.810, 3493.806 2415 C 3587.044 2130.568, 3602.042 1822.116, 3536.927 1528.177 C 3474.612 1246.878, 3339.947 985.525, 3145.754 769 C 3105.071 723.638, 3056.769 675.601, 3010.500 634.488 C 2864.468 504.728, 2697.105 401.132, 2517 329.017 C 2300.609 242.373, 2064.750 201.430, 1832 210.109 M 707 1928.515 L 707 2585.031 1113.750 2584.740 C 1497.515 2584.466, 1521.291 2584.348, 1534.500 2582.662 C 1615.913 2572.266, 1684.791 2542.679, 1746.500 2491.596 C 1754.116 2485.291, 1811.475 2428.753, 1903.500 2336.841 L 2048.500 2192.020 1923.257 2066.767 L 1798.013 1941.514 1676.757 2062.607 C 1602.673 2136.591, 1552.178 2186.256, 1546.961 2190.269 C 1516.776 2213.486, 1482.269 2226.845, 1444.371 2229.985 C 1437.156 2230.583, 1359.642 2230.975, 1246.750 2230.984 L 1061 2231 1061 1928.983 L 1061 1626.965 1309.250 1627.286 C 1555.996 1627.605, 1557.561 1627.620, 1567.500 1629.683 C 1605.960 1637.664, 1634.734 1650.449, 1664.500 1672.782 C 1667.800 1675.258, 1874.801 1881.520, 2124.503 2131.142 L 2578.505 2585 2829.002 2585 L 3079.499 2585 2723.500 2229 L 2367.501 1873 2667.251 1573.249 C 2832.113 1408.387, 2967 1273.162, 2967 1272.749 C 2967 1272.337, 2854.613 1272, 2717.251 1272 L 2467.502 1272 2292.260 1447.240 L 2117.018 1622.480 2004.759 1510.415 C 1895.859 1401.704, 1884.237 1390.618, 1860.500 1372.819 C 1819.426 1342.019, 1770.693 1316.212, 1722.338 1299.652 C 1677.082 1284.154, 1631.436 1275.525, 1581.500 1273.028 C 1568.829 1272.394, 1404.930 1272.023, 1134.250 1272.014 L 707 1272 707 1928.515 M 0.463 1893 C 0.463 1919.675, 0.592 1930.588, 0.749 1917.250 C 0.907 1903.912, 0.907 1882.088, 0.749 1868.750 C 0.592 1855.412, 0.463 1866.325, 0.463 1893" stroke="none" fill="#fffcfc" fill-rule="evenodd"/><path d="" stroke="none" fill="#fcfcfc" fill-rule="evenodd"/></svg>